<?xml version="1.0" encoding="utf-8"?>
<!-- Generator: Adobe Illustrator 19.0.0, SVG Export Plug-In . SVG Version: 6.00 Build 0)  -->
<svg version="1.1" id="Layer_1" xmlns="http://www.w3.org/2000/svg" xmlns:xlink="http://www.w3.org/1999/xlink" x="0px" y="0px"
	 viewBox="-554.6 353 79.9 26.9" style="enable-background:new -554.6 353 79.9 26.9;" xml:space="preserve">
<style type="text/css">
	.st0{fill:#FFFFFF;}
</style>
<g>
	<path class="st0" d="M-551.7,369.1c0-2.4-1-4.4-2.9-5.9l3.7-2.2c0.5,0.4,1.3,1.3,2.2,2.7c2-1.9,4-2.9,5.9-2.9c1.6,0,3,0.5,4.2,1.6
		c1.2,1.1,1.8,2.4,1.8,4v13h-4.4v-10.9c0-2-0.7-3-2.2-3s-2.8,1.1-3.9,3.4v10.5h-4.4V369.1L-551.7,369.1z"/>
	<path class="st0" d="M-519.3,371.5c0,2.4,1,4.4,2.9,5.9l-3.7,2.2c-0.5-0.4-1.2-1.1-1.9-2.1c-1.3,1.5-3,2.3-5,2.3
		c-1.7,0-3.2-0.5-4.5-1.7c-1.4-1.2-2-2.7-2-4.4c0-1.9,0.8-3.4,2.3-4.5c1.4-1.1,3.2-1.7,5.4-1.7h2c0-1.8-1-2.7-2.8-2.7
		c-1.2,0-2.2,0.3-3.1,0.9l-1.6-3.6c1.4-1,2.9-1.5,4.7-1.5c2.3,0,4.2,0.7,5.4,2s1.8,2.9,1.8,5L-519.3,371.5L-519.3,371.5z
		 M-523.8,371h-2c-2.1,0-3.2,0.9-3.2,2.8c0,0.6,0.2,1,0.7,1.4s1,0.5,1.5,0.5c1.2,0,2.2-0.6,3.3-1.7
		C-523.7,372.9-523.8,371.9-523.8,371z"/>
	<path class="st0" d="M-508.2,371.8c0,2.4,1,4.4,2.9,5.9l-3.7,2.2c-2.4-2.2-3.6-4.9-3.6-8.1v-6h-3.3v-4.4h3.3V356h4.4v5.4h3.5v4.4
		h-3.5L-508.2,371.8L-508.2,371.8z"/>
	<path class="st0" d="M-495.4,355.7c0,0.7-0.3,1.3-0.8,1.9c-0.5,0.5-1.2,0.8-1.9,0.8s-1.3-0.3-1.9-0.8c-0.5-0.5-0.8-1.2-0.8-1.9
		c0-0.7,0.3-1.4,0.8-1.9s1.2-0.8,1.9-0.8s1.4,0.3,1.9,0.8C-495.6,354.4-495.4,355-495.4,355.7z M-495.8,379.2h-4.5v-17.9h4.5V379.2z
		"/>
	<path class="st0" d="M-483.2,360.8c2.4,0,4.4,1,6.1,2.8c1.6,1.9,2.4,4.1,2.4,6.7s-0.8,4.8-2.4,6.7c-1.6,1.9-3.6,2.8-6.1,2.8
		c-2.4,0-4.4-1-6.1-2.8c-1.6-1.9-2.4-4.1-2.4-6.7s0.8-4.8,2.4-6.7C-487.6,361.7-485.6,360.8-483.2,360.8z M-487.1,370.3
		c0,1.3,0.4,2.5,1.1,3.5c0.7,1.1,1.7,1.6,2.9,1.6s2.2-0.5,2.9-1.6c0.7-1,1.1-2.1,1.1-3.5s-0.4-2.5-1.1-3.6c-0.7-1-1.7-1.5-2.9-1.5
		s-2.1,0.5-2.9,1.5C-486.8,367.7-487.1,368.9-487.1,370.3z"/>
</g>
</svg>
